0
SECTION
2
HEADER
9
$INSUNITS
70
4
0
ENDSEC
0
SECTION
2
TABLES
0
TABLE
2
LTYPE
0
LTYPE
72
65
70
64
2
CONTINUOUS
3
______
73
0
40
0
0
ENDTAB
0
TABLE
2
LAYER
0
ENDTAB
0
ENDSEC
0
SECTION
2
ENTITIES
0
LINE
8
0
10
38.5
20
-190.069777
11
38.5
21
-113.7627752
0
LINE
8
0
10
41.6962236
20
-109.8443644
11
57.4647244
21
-106.6098001
0
LINE
8
0
10
58.4862144
20
-106.2506593
11
77.1017616
21
-96.7042248
0
LINE
8
0
10
77.9335264
20
-96.3888394
11
96.5681802
21
-91.610723
0
LINE
8
0
10
97.4456018
20
-91.4870632
11
127.5015817
21
-90.6144702
0
LINE
8
0
10
128.486717
20
-90.7083338
11
158.5707252
21
-97.4044517
0
LINE
8
0
10
159.4397804
20
-97.5
11
181.458429
21
-97.5
0
LINE
8
0
10
185.4584201
20
-101.491562
11
185.6774314
21
-205.3140737
0
LINE
8
0
10
181.6184887
20
-209.3220773
11
59.3629556
21
-207.5200893
0
LINE
8
0
10
56.9329309
20
-206.6518168
11
40.0110237
21
-193.2010701
0
ARC
8
0
10
42.5
20
-113.7627752
40
4
50
101.592173
51
180
0
ARC
8
0
10
56.660948
20
-102.6913893
40
4
50
281.592173
51
297.1496783
0
ARC
8
0
10
78.927028
20
-100.2634948
40
4
50
104.3813969
51
117.1496783
0
ARC
8
0
10
97.5616818
20
-95.4853785
40
4
50
91.662957
51
104.3813969
0
ARC
8
0
10
127.6176617
20
-94.6127855
40
4
50
77.4516262
51
91.662957
0
ARC
8
0
10
159.4397804
20
-93.5
40
4
50
257.4516262
51
270
0
ARC
8
0
10
181.458429
20
-101.5
40
4
50
0.1208655
51
90
0
ARC
8
0
10
181.6774403
20
-205.3225117
40
4
50
269.15555
51
0.1208655
0
ARC
8
0
10
59.4219072
20
-203.5205237
40
4
50
231.5198045
51
269.15555
0
ARC
8
0
10
42.5
20
-190.069777
40
4
50
180
51
231.5198045
0
LINE
8
0
10
40.75
20
-189.75
11
59.25
21
-189.75
0
LINE
8
0
10
59.25
20
-189.75
11
59.25
21
-171.25
0
LINE
8
0
10
59.25
20
-171.25
11
40.75
21
-171.25
0
LINE
8
0
10
40.75
20
-171.25
11
40.75
21
-189.75
0
LINE
8
0
10
40.75
20
-170.25
11
59.25
21
-170.25
0
LINE
8
0
10
59.25
20
-170.25
11
59.25
21
-151.75
0
LINE
8
0
10
59.25
20
-151.75
11
40.75
21
-151.75
0
LINE
8
0
10
40.75
20
-151.75
11
40.75
21
-170.25
0
LINE
8
0
10
40.75
20
-150.75
11
59.25
21
-150.75
0
LINE
8
0
10
59.25
20
-150.75
11
59.25
21
-132.25
0
LINE
8
0
10
59.25
20
-132.25
11
40.75
21
-132.25
0
LINE
8
0
10
40.75
20
-132.25
11
40.75
21
-150.75
0
LINE
8
0
10
40.75
20
-131.25
11
59.25
21
-131.25
0
LINE
8
0
10
59.25
20
-131.25
11
59.25
21
-112.75
0
LINE
8
0
10
59.25
20
-112.75
11
40.75
21
-112.75
0
LINE
8
0
10
40.75
20
-112.75
11
40.75
21
-131.25
0
LINE
8
0
10
60.25
20
-205.25
11
78.75
21
-205.25
0
LINE
8
0
10
78.75
20
-205.25
11
78.75
21
-186.75
0
LINE
8
0
10
78.75
20
-186.75
11
60.25
21
-186.75
0
LINE
8
0
10
60.25
20
-186.75
11
60.25
21
-205.25
0
LINE
8
0
10
60.25
20
-185.75
11
78.75
21
-185.75
0
LINE
8
0
10
78.75
20
-185.75
11
78.75
21
-167.25
0
LINE
8
0
10
78.75
20
-167.25
11
60.25
21
-167.25
0
LINE
8
0
10
60.25
20
-167.25
11
60.25
21
-185.75
0
LINE
8
0
10
60.25
20
-166.25
11
78.75
21
-166.25
0
LINE
8
0
10
78.75
20
-166.25
11
78.75
21
-147.75
0
LINE
8
0
10
78.75
20
-147.75
11
60.25
21
-147.75
0
LINE
8
0
10
60.25
20
-147.75
11
60.25
21
-166.25
0
LINE
8
0
10
60.25
20
-146.75
11
78.75
21
-146.75
0
LINE
8
0
10
78.75
20
-146.75
11
78.75
21
-128.25
0
LINE
8
0
10
78.75
20
-128.25
11
60.25
21
-128.25
0
LINE
8
0
10
60.25
20
-128.25
11
60.25
21
-146.75
0
LINE
8
0
10
60.25
20
-127.25
11
78.75
21
-127.25
0
LINE
8
0
10
78.75
20
-127.25
11
78.75
21
-108.75
0
LINE
8
0
10
78.75
20
-108.75
11
60.25
21
-108.75
0
LINE
8
0
10
60.25
20
-108.75
11
60.25
21
-127.25
0
LINE
8
0
10
79.75
20
-195.25
11
98.25
21
-195.25
0
LINE
8
0
10
98.25
20
-195.25
11
98.25
21
-176.75
0
LINE
8
0
10
98.25
20
-176.75
11
79.75
21
-176.75
0
LINE
8
0
10
79.75
20
-176.75
11
79.75
21
-195.25
0
LINE
8
0
10
79.75
20
-175.75
11
98.25
21
-175.75
0
LINE
8
0
10
98.25
20
-175.75
11
98.25
21
-157.25
0
LINE
8
0
10
98.25
20
-157.25
11
79.75
21
-157.25
0
LINE
8
0
10
79.75
20
-157.25
11
79.75
21
-175.75
0
LINE
8
0
10
79.75
20
-156.25
11
98.25
21
-156.25
0
LINE
8
0
10
98.25
20
-156.25
11
98.25
21
-137.75
0
LINE
8
0
10
98.25
20
-137.75
11
79.75
21
-137.75
0
LINE
8
0
10
79.75
20
-137.75
11
79.75
21
-156.25
0
LINE
8
0
10
79.75
20
-136.75
11
98.25
21
-136.75
0
LINE
8
0
10
98.25
20
-136.75
11
98.25
21
-118.25
0
LINE
8
0
10
98.25
20
-118.25
11
79.75
21
-118.25
0
LINE
8
0
10
79.75
20
-118.25
11
79.75
21
-136.75
0
LINE
8
0
10
79.75
20
-117.25
11
98.25
21
-117.25
0
LINE
8
0
10
98.25
20
-117.25
11
98.25
21
-98.75
0
LINE
8
0
10
98.25
20
-98.75
11
79.75
21
-98.75
0
LINE
8
0
10
79.75
20
-98.75
11
79.75
21
-117.25
0
LINE
8
0
10
99.25
20
-190.25
11
117.75
21
-190.25
0
LINE
8
0
10
117.75
20
-190.25
11
117.75
21
-171.75
0
LINE
8
0
10
117.75
20
-171.75
11
99.25
21
-171.75
0
LINE
8
0
10
99.25
20
-171.75
11
99.25
21
-190.25
0
LINE
8
0
10
99.25
20
-170.75
11
117.75
21
-170.75
0
LINE
8
0
10
117.75
20
-170.75
11
117.75
21
-152.25
0
LINE
8
0
10
117.75
20
-152.25
11
99.25
21
-152.25
0
LINE
8
0
10
99.25
20
-152.25
11
99.25
21
-170.75
0
LINE
8
0
10
99.25
20
-151.25
11
117.75
21
-151.25
0
LINE
8
0
10
117.75
20
-151.25
11
117.75
21
-132.75
0
LINE
8
0
10
117.75
20
-132.75
11
99.25
21
-132.75
0
LINE
8
0
10
99.25
20
-132.75
11
99.25
21
-151.25
0
LINE
8
0
10
99.25
20
-131.75
11
117.75
21
-131.75
0
LINE
8
0
10
117.75
20
-131.75
11
117.75
21
-113.25
0
LINE
8
0
10
117.75
20
-113.25
11
99.25
21
-113.25
0
LINE
8
0
10
99.25
20
-113.25
11
99.25
21
-131.75
0
LINE
8
0
10
99.25
20
-112.25
11
117.75
21
-112.25
0
LINE
8
0
10
117.75
20
-112.25
11
117.75
21
-93.75
0
LINE
8
0
10
117.75
20
-93.75
11
99.25
21
-93.75
0
LINE
8
0
10
99.25
20
-93.75
11
99.25
21
-112.25
0
LINE
8
0
10
118.75
20
-176.75
11
137.25
21
-176.75
0
LINE
8
0
10
137.25
20
-176.75
11
137.25
21
-158.25
0
LINE
8
0
10
137.25
20
-158.25
11
118.75
21
-158.25
0
LINE
8
0
10
118.75
20
-158.25
11
118.75
21
-176.75
0
LINE
8
0
10
118.75
20
-157.25
11
137.25
21
-157.25
0
LINE
8
0
10
137.25
20
-157.25
11
137.25
21
-138.75
0
LINE
8
0
10
137.25
20
-138.75
11
118.75
21
-138.75
0
LINE
8
0
10
118.75
20
-138.75
11
118.75
21
-157.25
0
LINE
8
0
10
118.75
20
-137.75
11
137.25
21
-137.75
0
LINE
8
0
10
137.25
20
-137.75
11
137.25
21
-119.25
0
LINE
8
0
10
137.25
20
-119.25
11
118.75
21
-119.25
0
LINE
8
0
10
118.75
20
-119.25
11
118.75
21
-137.75
0
LINE
8
0
10
118.75
20
-118.25
11
137.25
21
-118.25
0
LINE
8
0
10
137.25
20
-118.25
11
137.25
21
-99.75
0
LINE
8
0
10
137.25
20
-99.75
11
118.75
21
-99.75
0
LINE
8
0
10
118.75
20
-99.75
11
118.75
21
-118.25
0
LINE
8
0
10
138.25
20
-178.75
11
156.75
21
-178.75
0
LINE
8
0
10
156.75
20
-178.75
11
156.75
21
-160.25
0
LINE
8
0
10
156.75
20
-160.25
11
138.25
21
-160.25
0
LINE
8
0
10
138.25
20
-160.25
11
138.25
21
-178.75
0
LINE
8
0
10
138.25
20
-159.25
11
156.75
21
-159.25
0
LINE
8
0
10
156.75
20
-159.25
11
156.75
21
-140.75
0
LINE
8
0
10
156.75
20
-140.75
11
138.25
21
-140.75
0
LINE
8
0
10
138.25
20
-140.75
11
138.25
21
-159.25
0
LINE
8
0
10
138.25
20
-139.75
11
156.75
21
-139.75
0
LINE
8
0
10
156.75
20
-139.75
11
156.75
21
-121.25
0
LINE
8
0
10
156.75
20
-121.25
11
138.25
21
-121.25
0
LINE
8
0
10
138.25
20
-121.25
11
138.25
21
-139.75
0
LINE
8
0
10
138.25
20
-120.25
11
156.75
21
-120.25
0
LINE
8
0
10
156.75
20
-120.25
11
156.75
21
-101.75
0
LINE
8
0
10
156.75
20
-101.75
11
138.25
21
-101.75
0
LINE
8
0
10
138.25
20
-101.75
11
138.25
21
-120.25
0
LINE
8
0
10
125.4967739
20
-203.2157174
11
143.7157174
21
-200.0032261
0
LINE
8
0
10
143.7157174
20
-200.0032261
11
140.5032261
21
-181.7842826
0
LINE
8
0
10
140.5032261
20
-181.7842826
11
122.2842826
21
-184.9967739
0
LINE
8
0
10
122.2842826
20
-184.9967739
11
125.4967739
21
-203.2157174
0
LINE
8
0
10
154.316671
20
-201.5660596
11
172.5356145
21
-204.7785509
0
LINE
8
0
10
172.5356145
20
-204.7785509
11
175.7481058
21
-186.5596074
0
LINE
8
0
10
175.7481058
20
-186.5596074
11
157.5291623
21
-183.3471161
0
LINE
8
0
10
157.5291623
20
-183.3471161
11
154.316671
21
-201.5660596
0
LINE
8
0
10
161.4790084
20
-179.9086103
11
179.9086103
21
-181.5209916
0
LINE
8
0
10
179.9086103
20
-181.5209916
11
181.5209916
21
-163.0913897
0
LINE
8
0
10
181.5209916
20
-163.0913897
11
163.0913897
21
-161.4790084
0
LINE
8
0
10
163.0913897
20
-161.4790084
11
161.4790084
21
-179.9086103
0
ENDSEC
0
EOF