0
SECTION
2
HEADER
9
$INSUNITS
70
4
0
ENDSEC
0
SECTION
2
TABLES
0
TABLE
2
LTYPE
0
LTYPE
72
65
70
64
2
CONTINUOUS
3
______
73
0
40
0
0
ENDTAB
0
TABLE
2
LAYER
0
ENDTAB
0
ENDSEC
0
SECTION
2
ENTITIES
0
LINE
8
0
10
40.5
20
-190
11
59.5
21
-190
0
LINE
8
0
10
59.5
20
-190
11
59.5
21
-171
0
LINE
8
0
10
59.5
20
-171
11
40.5
21
-171
0
LINE
8
0
10
40.5
20
-171
11
40.5
21
-190
0
LINE
8
0
10
40.5
20
-170.5
11
59.5
21
-170.5
0
LINE
8
0
10
59.5
20
-170.5
11
59.5
21
-151.5
0
LINE
8
0
10
59.5
20
-151.5
11
40.5
21
-151.5
0
LINE
8
0
10
40.5
20
-151.5
11
40.5
21
-170.5
0
LINE
8
0
10
40.5
20
-151
11
59.5
21
-151
0
LINE
8
0
10
59.5
20
-151
11
59.5
21
-132
0
LINE
8
0
10
59.5
20
-132
11
40.5
21
-132
0
LINE
8
0
10
40.5
20
-132
11
40.5
21
-151
0
LINE
8
0
10
40.5
20
-131.5
11
59.5
21
-131.5
0
LINE
8
0
10
59.5
20
-131.5
11
59.5
21
-112.5
0
LINE
8
0
10
59.5
20
-112.5
11
40.5
21
-112.5
0
LINE
8
0
10
40.5
20
-112.5
11
40.5
21
-131.5
0
LINE
8
0
10
60
20
-205.5
11
79
21
-205.5
0
LINE
8
0
10
79
20
-205.5
11
79
21
-186.5
0
LINE
8
0
10
79
20
-186.5
11
60
21
-186.5
0
LINE
8
0
10
60
20
-186.5
11
60
21
-205.5
0
LINE
8
0
10
60
20
-186
11
79
21
-186
0
LINE
8
0
10
79
20
-186
11
79
21
-167
0
LINE
8
0
10
79
20
-167
11
60
21
-167
0
LINE
8
0
10
60
20
-167
11
60
21
-186
0
LINE
8
0
10
60
20
-166.5
11
79
21
-166.5
0
LINE
8
0
10
79
20
-166.5
11
79
21
-147.5
0
LINE
8
0
10
79
20
-147.5
11
60
21
-147.5
0
LINE
8
0
10
60
20
-147.5
11
60
21
-166.5
0
LINE
8
0
10
60
20
-147
11
79
21
-147
0
LINE
8
0
10
79
20
-147
11
79
21
-128
0
LINE
8
0
10
79
20
-128
11
60
21
-128
0
LINE
8
0
10
60
20
-128
11
60
21
-147
0
LINE
8
0
10
60
20
-127.5
11
79
21
-127.5
0
LINE
8
0
10
79
20
-127.5
11
79
21
-108.5
0
LINE
8
0
10
79
20
-108.5
11
60
21
-108.5
0
LINE
8
0
10
60
20
-108.5
11
60
21
-127.5
0
LINE
8
0
10
79.5
20
-195.5
11
98.5
21
-195.5
0
LINE
8
0
10
98.5
20
-195.5
11
98.5
21
-176.5
0
LINE
8
0
10
98.5
20
-176.5
11
79.5
21
-176.5
0
LINE
8
0
10
79.5
20
-176.5
11
79.5
21
-195.5
0
LINE
8
0
10
79.5
20
-176
11
98.5
21
-176
0
LINE
8
0
10
98.5
20
-176
11
98.5
21
-157
0
LINE
8
0
10
98.5
20
-157
11
79.5
21
-157
0
LINE
8
0
10
79.5
20
-157
11
79.5
21
-176
0
LINE
8
0
10
79.5
20
-156.5
11
98.5
21
-156.5
0
LINE
8
0
10
98.5
20
-156.5
11
98.5
21
-137.5
0
LINE
8
0
10
98.5
20
-137.5
11
79.5
21
-137.5
0
LINE
8
0
10
79.5
20
-137.5
11
79.5
21
-156.5
0
LINE
8
0
10
79.5
20
-137
11
98.5
21
-137
0
LINE
8
0
10
98.5
20
-137
11
98.5
21
-118
0
LINE
8
0
10
98.5
20
-118
11
79.5
21
-118
0
LINE
8
0
10
79.5
20
-118
11
79.5
21
-137
0
LINE
8
0
10
79.5
20
-117.5
11
98.5
21
-117.5
0
LINE
8
0
10
98.5
20
-117.5
11
98.5
21
-98.5
0
LINE
8
0
10
98.5
20
-98.5
11
79.5
21
-98.5
0
LINE
8
0
10
79.5
20
-98.5
11
79.5
21
-117.5
0
LINE
8
0
10
99
20
-190.5
11
118
21
-190.5
0
LINE
8
0
10
118
20
-190.5
11
118
21
-171.5
0
LINE
8
0
10
118
20
-171.5
11
99
21
-171.5
0
LINE
8
0
10
99
20
-171.5
11
99
21
-190.5
0
LINE
8
0
10
99
20
-171
11
118
21
-171
0
LINE
8
0
10
118
20
-171
11
118
21
-152
0
LINE
8
0
10
118
20
-152
11
99
21
-152
0
LINE
8
0
10
99
20
-152
11
99
21
-171
0
LINE
8
0
10
99
20
-151.5
11
118
21
-151.5
0
LINE
8
0
10
118
20
-151.5
11
118
21
-132.5
0
LINE
8
0
10
118
20
-132.5
11
99
21
-132.5
0
LINE
8
0
10
99
20
-132.5
11
99
21
-151.5
0
LINE
8
0
10
99
20
-132
11
118
21
-132
0
LINE
8
0
10
118
20
-132
11
118
21
-113
0
LINE
8
0
10
118
20
-113
11
99
21
-113
0
LINE
8
0
10
99
20
-113
11
99
21
-132
0
LINE
8
0
10
99
20
-112.5
11
118
21
-112.5
0
LINE
8
0
10
118
20
-112.5
11
118
21
-93.5
0
LINE
8
0
10
118
20
-93.5
11
99
21
-93.5
0
LINE
8
0
10
99
20
-93.5
11
99
21
-112.5
0
LINE
8
0
10
118.5
20
-177
11
137.5
21
-177
0
LINE
8
0
10
137.5
20
-177
11
137.5
21
-158
0
LINE
8
0
10
137.5
20
-158
11
118.5
21
-158
0
LINE
8
0
10
118.5
20
-158
11
118.5
21
-177
0
LINE
8
0
10
118.5
20
-157.5
11
137.5
21
-157.5
0
LINE
8
0
10
137.5
20
-157.5
11
137.5
21
-138.5
0
LINE
8
0
10
137.5
20
-138.5
11
118.5
21
-138.5
0
LINE
8
0
10
118.5
20
-138.5
11
118.5
21
-157.5
0
LINE
8
0
10
118.5
20
-138
11
137.5
21
-138
0
LINE
8
0
10
137.5
20
-138
11
137.5
21
-119
0
LINE
8
0
10
137.5
20
-119
11
118.5
21
-119
0
LINE
8
0
10
118.5
20
-119
11
118.5
21
-138
0
LINE
8
0
10
118.5
20
-118.5
11
137.5
21
-118.5
0
LINE
8
0
10
137.5
20
-118.5
11
137.5
21
-99.5
0
LINE
8
0
10
137.5
20
-99.5
11
118.5
21
-99.5
0
LINE
8
0
10
118.5
20
-99.5
11
118.5
21
-118.5
0
LINE
8
0
10
138
20
-179
11
157
21
-179
0
LINE
8
0
10
157
20
-179
11
157
21
-160
0
LINE
8
0
10
157
20
-160
11
138
21
-160
0
LINE
8
0
10
138
20
-160
11
138
21
-179
0
LINE
8
0
10
138
20
-159.5
11
157
21
-159.5
0
LINE
8
0
10
157
20
-159.5
11
157
21
-140.5
0
LINE
8
0
10
157
20
-140.5
11
138
21
-140.5
0
LINE
8
0
10
138
20
-140.5
11
138
21
-159.5
0
LINE
8
0
10
138
20
-140
11
157
21
-140
0
LINE
8
0
10
157
20
-140
11
157
21
-121
0
LINE
8
0
10
157
20
-121
11
138
21
-121
0
LINE
8
0
10
138
20
-121
11
138
21
-140
0
LINE
8
0
10
138
20
-120.5
11
157
21
-120.5
0
LINE
8
0
10
157
20
-120.5
11
157
21
-101.5
0
LINE
8
0
10
157
20
-101.5
11
138
21
-101.5
0
LINE
8
0
10
138
20
-101.5
11
138
21
-120.5
0
LINE
8
0
10
125.293984
20
-203.5053313
11
144.0053313
21
-200.206016
0
LINE
8
0
10
144.0053313
20
-200.206016
11
140.706016
21
-181.4946687
0
LINE
8
0
10
140.706016
20
-181.4946687
11
121.9946687
21
-184.793984
0
LINE
8
0
10
121.9946687
20
-184.793984
11
125.293984
21
-203.5053313
0
LINE
8
0
10
154.0270571
20
-201.7688495
11
172.7384044
21
-205.0681648
0
LINE
8
0
10
172.7384044
20
-205.0681648
11
176.0377197
21
-186.3568175
0
LINE
8
0
10
176.0377197
20
-186.3568175
11
157.3263724
21
-183.0575022
0
LINE
8
0
10
157.3263724
20
-183.0575022
11
154.0270571
21
-201.7688495
0
LINE
8
0
10
161.2081708
20
-180.1358701
11
180.1358701
21
-181.7918292
0
LINE
8
0
10
180.1358701
20
-181.7918292
11
181.7918292
21
-162.8641299
0
LINE
8
0
10
181.7918292
20
-162.8641299
11
162.8641299
21
-161.2081708
0
LINE
8
0
10
162.8641299
20
-161.2081708
11
161.2081708
21
-180.1358701
0
LINE
8
0
10
335.5
20
-190
11
354.5
21
-190
0
LINE
8
0
10
354.5
20
-190
11
354.5
21
-171
0
LINE
8
0
10
354.5
20
-171
11
335.5
21
-171
0
LINE
8
0
10
335.5
20
-171
11
335.5
21
-190
0
LINE
8
0
10
335.5
20
-170.5
11
354.5
21
-170.5
0
LINE
8
0
10
354.5
20
-170.5
11
354.5
21
-151.5
0
LINE
8
0
10
354.5
20
-151.5
11
335.5
21
-151.5
0
LINE
8
0
10
335.5
20
-151.5
11
335.5
21
-170.5
0
LINE
8
0
10
335.5
20
-151
11
354.5
21
-151
0
LINE
8
0
10
354.5
20
-151
11
354.5
21
-132
0
LINE
8
0
10
354.5
20
-132
11
335.5
21
-132
0
LINE
8
0
10
335.5
20
-132
11
335.5
21
-151
0
LINE
8
0
10
335.5
20
-131.5
11
354.5
21
-131.5
0
LINE
8
0
10
354.5
20
-131.5
11
354.5
21
-112.5
0
LINE
8
0
10
354.5
20
-112.5
11
335.5
21
-112.5
0
LINE
8
0
10
335.5
20
-112.5
11
335.5
21
-131.5
0
LINE
8
0
10
316
20
-205.5
11
335
21
-205.5
0
LINE
8
0
10
335
20
-205.5
11
335
21
-186.5
0
LINE
8
0
10
335
20
-186.5
11
316
21
-186.5
0
LINE
8
0
10
316
20
-186.5
11
316
21
-205.5
0
LINE
8
0
10
316
20
-186
11
335
21
-186
0
LINE
8
0
10
335
20
-186
11
335
21
-167
0
LINE
8
0
10
335
20
-167
11
316
21
-167
0
LINE
8
0
10
316
20
-167
11
316
21
-186
0
LINE
8
0
10
316
20
-166.5
11
335
21
-166.5
0
LINE
8
0
10
335
20
-166.5
11
335
21
-147.5
0
LINE
8
0
10
335
20
-147.5
11
316
21
-147.5
0
LINE
8
0
10
316
20
-147.5
11
316
21
-166.5
0
LINE
8
0
10
316
20
-147
11
335
21
-147
0
LINE
8
0
10
335
20
-147
11
335
21
-128
0
LINE
8
0
10
335
20
-128
11
316
21
-128
0
LINE
8
0
10
316
20
-128
11
316
21
-147
0
LINE
8
0
10
316
20
-127.5
11
335
21
-127.5
0
LINE
8
0
10
335
20
-127.5
11
335
21
-108.5
0
LINE
8
0
10
335
20
-108.5
11
316
21
-108.5
0
LINE
8
0
10
316
20
-108.5
11
316
21
-127.5
0
LINE
8
0
10
296.5
20
-195.5
11
315.5
21
-195.5
0
LINE
8
0
10
315.5
20
-195.5
11
315.5
21
-176.5
0
LINE
8
0
10
315.5
20
-176.5
11
296.5
21
-176.5
0
LINE
8
0
10
296.5
20
-176.5
11
296.5
21
-195.5
0
LINE
8
0
10
296.5
20
-176
11
315.5
21
-176
0
LINE
8
0
10
315.5
20
-176
11
315.5
21
-157
0
LINE
8
0
10
315.5
20
-157
11
296.5
21
-157
0
LINE
8
0
10
296.5
20
-157
11
296.5
21
-176
0
LINE
8
0
10
296.5
20
-156.5
11
315.5
21
-156.5
0
LINE
8
0
10
315.5
20
-156.5
11
315.5
21
-137.5
0
LINE
8
0
10
315.5
20
-137.5
11
296.5
21
-137.5
0
LINE
8
0
10
296.5
20
-137.5
11
296.5
21
-156.5
0
LINE
8
0
10
296.5
20
-137
11
315.5
21
-137
0
LINE
8
0
10
315.5
20
-137
11
315.5
21
-118
0
LINE
8
0
10
315.5
20
-118
11
296.5
21
-118
0
LINE
8
0
10
296.5
20
-118
11
296.5
21
-137
0
LINE
8
0
10
296.5
20
-117.5
11
315.5
21
-117.5
0
LINE
8
0
10
315.5
20
-117.5
11
315.5
21
-98.5
0
LINE
8
0
10
315.5
20
-98.5
11
296.5
21
-98.5
0
LINE
8
0
10
296.5
20
-98.5
11
296.5
21
-117.5
0
LINE
8
0
10
277
20
-190.5
11
296
21
-190.5
0
LINE
8
0
10
296
20
-190.5
11
296
21
-171.5
0
LINE
8
0
10
296
20
-171.5
11
277
21
-171.5
0
LINE
8
0
10
277
20
-171.5
11
277
21
-190.5
0
LINE
8
0
10
277
20
-171
11
296
21
-171
0
LINE
8
0
10
296
20
-171
11
296
21
-152
0
LINE
8
0
10
296
20
-152
11
277
21
-152
0
LINE
8
0
10
277
20
-152
11
277
21
-171
0
LINE
8
0
10
277
20
-151.5
11
296
21
-151.5
0
LINE
8
0
10
296
20
-151.5
11
296
21
-132.5
0
LINE
8
0
10
296
20
-132.5
11
277
21
-132.5
0
LINE
8
0
10
277
20
-132.5
11
277
21
-151.5
0
LINE
8
0
10
277
20
-132
11
296
21
-132
0
LINE
8
0
10
296
20
-132
11
296
21
-113
0
LINE
8
0
10
296
20
-113
11
277
21
-113
0
LINE
8
0
10
277
20
-113
11
277
21
-132
0
LINE
8
0
10
277
20
-112.5
11
296
21
-112.5
0
LINE
8
0
10
296
20
-112.5
11
296
21
-93.5
0
LINE
8
0
10
296
20
-93.5
11
277
21
-93.5
0
LINE
8
0
10
277
20
-93.5
11
277
21
-112.5
0
LINE
8
0
10
257.5
20
-177
11
276.5
21
-177
0
LINE
8
0
10
276.5
20
-177
11
276.5
21
-158
0
LINE
8
0
10
276.5
20
-158
11
257.5
21
-158
0
LINE
8
0
10
257.5
20
-158
11
257.5
21
-177
0
LINE
8
0
10
257.5
20
-157.5
11
276.5
21
-157.5
0
LINE
8
0
10
276.5
20
-157.5
11
276.5
21
-138.5
0
LINE
8
0
10
276.5
20
-138.5
11
257.5
21
-138.5
0
LINE
8
0
10
257.5
20
-138.5
11
257.5
21
-157.5
0
LINE
8
0
10
257.5
20
-138
11
276.5
21
-138
0
LINE
8
0
10
276.5
20
-138
11
276.5
21
-119
0
LINE
8
0
10
276.5
20
-119
11
257.5
21
-119
0
LINE
8
0
10
257.5
20
-119
11
257.5
21
-138
0
LINE
8
0
10
257.5
20
-118.5
11
276.5
21
-118.5
0
LINE
8
0
10
276.5
20
-118.5
11
276.5
21
-99.5
0
LINE
8
0
10
276.5
20
-99.5
11
257.5
21
-99.5
0
LINE
8
0
10
257.5
20
-99.5
11
257.5
21
-118.5
0
LINE
8
0
10
238
20
-179
11
257
21
-179
0
LINE
8
0
10
257
20
-179
11
257
21
-160
0
LINE
8
0
10
257
20
-160
11
238
21
-160
0
LINE
8
0
10
238
20
-160
11
238
21
-179
0
LINE
8
0
10
238
20
-159.5
11
257
21
-159.5
0
LINE
8
0
10
257
20
-159.5
11
257
21
-140.5
0
LINE
8
0
10
257
20
-140.5
11
238
21
-140.5
0
LINE
8
0
10
238
20
-140.5
11
238
21
-159.5
0
LINE
8
0
10
238
20
-140
11
257
21
-140
0
LINE
8
0
10
257
20
-140
11
257
21
-121
0
LINE
8
0
10
257
20
-121
11
238
21
-121
0
LINE
8
0
10
238
20
-121
11
238
21
-140
0
LINE
8
0
10
238
20
-120.5
11
257
21
-120.5
0
LINE
8
0
10
257
20
-120.5
11
257
21
-101.5
0
LINE
8
0
10
257
20
-101.5
11
238
21
-101.5
0
LINE
8
0
10
238
20
-101.5
11
238
21
-120.5
0
LINE
8
0
10
250.9946687
20
-200.206016
11
269.706016
21
-203.5053313
0
LINE
8
0
10
269.706016
20
-203.5053313
11
273.0053313
21
-184.793984
0
LINE
8
0
10
273.0053313
20
-184.793984
11
254.293984
21
-181.4946687
0
LINE
8
0
10
254.293984
20
-181.4946687
11
250.9946687
21
-200.206016
0
LINE
8
0
10
222.2615956
20
-205.0681648
11
240.9729429
21
-201.7688495
0
LINE
8
0
10
240.9729429
20
-201.7688495
11
237.6736276
21
-183.0575022
0
LINE
8
0
10
237.6736276
20
-183.0575022
11
218.9622803
21
-186.3568175
0
LINE
8
0
10
218.9622803
20
-186.3568175
11
222.2615956
21
-205.0681648
0
LINE
8
0
10
214.8641299
20
-181.7918292
11
233.7918292
21
-180.1358701
0
LINE
8
0
10
233.7918292
20
-180.1358701
11
232.1358701
21
-161.2081708
0
LINE
8
0
10
232.1358701
20
-161.2081708
11
213.2081708
21
-162.8641299
0
LINE
8
0
10
213.2081708
20
-162.8641299
11
214.8641299
21
-181.7918292
0
ENDSEC
0
EOF